<?xml version="1.0" encoding="UTF-8" standalone="no"?>
<!-- Created with Inkscape (http://www.inkscape.org/) -->

<svg
   xmlns:osb="http://www.openswatchbook.org/uri/2009/osb"
   xmlns:dc="http://purl.org/dc/elements/1.1/"
   xmlns:cc="http://creativecommons.org/ns#"
   xmlns:rdf="http://www.w3.org/1999/02/22-rdf-syntax-ns#"
   xmlns:svg="http://www.w3.org/2000/svg"
   xmlns="http://www.w3.org/2000/svg"
   xmlns:sodipodi="http://sodipodi.sourceforge.net/DTD/sodipodi-0.dtd"
   xmlns:inkscape="http://www.inkscape.org/namespaces/inkscape"
   width="1280"
   height="720"
   viewBox="0 0 1280 719.99999"
   id="svg2"
   version="1.1"
   inkscape:version="0.91 r13725"
   sodipodi:docname="Inkscape mockup mobile version.svg">
  <defs
     id="defs4">
    <marker
       inkscape:stockid="Arrow2Lend"
       orient="auto"
       refY="0.0"
       refX="0.0"
       id="Arrow2Lend"
       style="overflow:visible;"
       inkscape:isstock="true">
      <path
         id="path8260"
         style="fill-rule:evenodd;stroke-width:0.62500000;stroke-linejoin:round;"
         d="M 8.7185878,4.0337352 L -2.2072895,0.016013256 L 8.7185884,-4.0017078 C 6.9730900,-1.6296469 6.9831476,1.6157441 8.7185878,4.0337352 z "
         transform="scale(1.1) rotate(180) translate(1,0)" />
    </marker>
    <marker
       inkscape:stockid="Arrow2Lstart"
       orient="auto"
       refY="0.0"
       refX="0.0"
       id="Arrow2Lstart"
       style="overflow:visible"
       inkscape:isstock="true">
      <path
         id="path8257"
         style="fill-rule:evenodd;stroke-width:0.62500000;stroke-linejoin:round"
         d="M 8.7185878,4.0337352 L -2.2072895,0.016013256 L 8.7185884,-4.0017078 C 6.9730900,-1.6296469 6.9831476,1.6157441 8.7185878,4.0337352 z "
         transform="scale(1.1) translate(1,0)" />
    </marker>
    <linearGradient
       id="linearGradient4179"
       osb:paint="solid">
      <stop
         style="stop-color:#000000;stop-opacity:1;"
         offset="0"
         id="stop4181" />
    </linearGradient>
    <inkscape:perspective
       sodipodi:type="inkscape:persp3d"
       inkscape:vp_x="0 : 360 : 1"
       inkscape:vp_y="0 : 1000 : 0"
       inkscape:vp_z="1280 : 360 : 1"
       inkscape:persp3d-origin="640 : 240 : 1"
       id="perspective4179" />
  </defs>
  <sodipodi:namedview
     id="base"
     pagecolor="#ffffff"
     bordercolor="#666666"
     borderopacity="1.0"
     inkscape:pageopacity="0.0"
     inkscape:pageshadow="2"
     inkscape:zoom="0.89884093"
     inkscape:cx="609.00717"
     inkscape:cy="823.47724"
     inkscape:document-units="px"
     inkscape:current-layer="layer1"
     showgrid="false"
     units="px"
     inkscape:showpageshadow="false"
     inkscape:window-width="1600"
     inkscape:window-height="838"
     inkscape:window-x="-8"
     inkscape:window-y="-8"
     inkscape:window-maximized="1"
     showguides="false"
     inkscape:guide-bbox="true">
    <sodipodi:guide
       position="0,0"
       orientation="0,1280"
       id="guide3341" />
    <sodipodi:guide
       position="1280,0"
       orientation="-720,0"
       id="guide3343" />
    <sodipodi:guide
       position="1280,719.99999"
       orientation="0,-1280"
       id="guide3345" />
    <sodipodi:guide
       position="0,719.99999"
       orientation="720,0"
       id="guide3347" />
    <sodipodi:guide
       position="649.99082,672.32322"
       orientation="1,0"
       id="guide3349" />
    <sodipodi:guide
       position="-106.38298,719.99999"
       orientation="0,1"
       id="guide4223" />
  </sodipodi:namedview>
  <metadata
     id="metadata7">
    <rdf:RDF>
      <cc:Work
         rdf:about="">
        <dc:format>image/svg+xml</dc:format>
        <dc:type
           rdf:resource="http://purl.org/dc/dcmitype/StillImage" />
        <dc:title></dc:title>
      </cc:Work>
    </rdf:RDF>
  </metadata>
  <g
     inkscape:label="Layer 1"
     inkscape:groupmode="layer"
     id="layer1"
     transform="translate(0,-332.3623)">
    <rect
       style="fill:none"
       id="rect4165"
       width="56.418732"
       height="51.717171"
       x="186.88705"
       y="999.46973"
       rx="180" />
    <rect
       style="fill:none"
       id="rect4167"
       width="920"
       height="720"
       x="146.92378"
       y="349.47891"
       rx="180" />
    <rect
       style="fill:none"
       id="rect4169"
       width="514.82092"
       height="338.51239"
       x="204.51791"
       y="390.61758"
       rx="180" />
    <rect
       style="fill:none;fill-opacity:1"
       id="rect4171"
       width="809.84387"
       height="565.36273"
       x="197.46556"
       y="349.47891"
       rx="180" />
    <rect
       style="fill:none;fill-rule:evenodd;stroke:#000000;stroke-width:0.615713px;stroke-linecap:butt;stroke-linejoin:miter;stroke-opacity:1"
       id="rect4144"
       width="348.61972"
       height="720.38434"
       x="156.23387"
       y="332.17017"
       ry="0" />
    <rect
       style="fill:none;fill-rule:evenodd;stroke:#000000;stroke-width:0.60729378px;stroke-linecap:butt;stroke-linejoin:miter;stroke-opacity:1"
       id="rect4159"
       width="332.80051"
       height="188.69037"
       x="164.69727"
       y="362.80423"
       rx="0" />
    <rect
       style="fill:none;fill-rule:evenodd;stroke:#000000;stroke-width:1px;stroke-linecap:butt;stroke-linejoin:miter;stroke-opacity:1"
       id="rect4161"
       width="330.85107"
       height="305.31915"
       x="164.79617"
       y="559.78546"
       ry="0" />
    <rect
       style="fill:none;fill-rule:evenodd;stroke:#000000;stroke-width:0.41897088px;stroke-linecap:butt;stroke-linejoin:miter;stroke-opacity:1"
       id="rect4163"
       width="333.82205"
       height="91.227936"
       x="160.48106"
       y="864.33197" />
    <ellipse
       style="opacity:1;fill:none;fill-opacity:1;stroke:none"
       id="path4173"
       cx="248.40425"
       cy="463.00058"
       rx="50.531914"
       ry="53.19149" />
    <path
       style="opacity:1;fill:none;fill-opacity:1;stroke:none"
       id="path4175"
       sodipodi:type="arc"
       sodipodi:cx="257.44681"
       sodipodi:cy="402.3623"
       sodipodi:rx="61.702129"
       sodipodi:ry="15.957447"
       sodipodi:start="0"
       sodipodi:end="1.1685253"
       d="m 319.14894,402.3623 a 61.702129,15.957447 0 0 1 -37.54519,14.68364 L 257.44681,402.3623 Z" />
    <g
       sodipodi:type="inkscape:box3d"
       id="g4209"
       style="opacity:1;fill:#000000;fill-opacity:1;stroke:none"
       inkscape:perspectiveID="#perspective4179"
       inkscape:corner0="-15.622383 : -4.8071582 : 0 : 1"
       inkscape:corner7="-18.366 : -5.8517314 : 0.25 : 1" />
    <rect
       style="fill:#6c00ff;fill-opacity:1;fill-rule:evenodd;stroke:#000000;stroke-width:0.88229692px;stroke-linecap:butt;stroke-linejoin:miter;stroke-opacity:1"
       id="rect4285"
       width="339.44788"
       height="43.734711"
       x="159.3616"
       y="959.45801" />
    <rect
       style="fill:#00f2c5;fill-opacity:1;fill-rule:evenodd;stroke:#000000;stroke-width:0.95191145px;stroke-linecap:butt;stroke-linejoin:miter;stroke-opacity:1"
       id="rect4295"
       width="338.92395"
       height="40.473869"
       x="160.53705"
       y="1007.186" />
    <flowRoot
       xml:space="preserve"
       id="flowRoot4329"
       style="font-style:normal;font-weight:normal;font-size:40px;line-height:125%;font-family:sans-serif;letter-spacing:0px;word-spacing:0px;fill:#000000;fill-opacity:1;stroke:none;stroke-width:1px;stroke-linecap:butt;stroke-linejoin:miter;stroke-opacity:1"
       transform="translate(0,332.3623)"><flowRegion
         id="flowRegion4331"><rect
           id="rect4333"
           width="846.80853"
           height="138.29787"
           x="194.68085"
           y="54.042553" /></flowRegion><flowPara
         id="flowPara4335">ChatTime</flowPara><flowPara
         id="flowPara4337" /></flowRoot>    <path
       sodipodi:type="spiral"
       style="fill:none;fill-rule:evenodd;stroke:#000000;stroke-width:1px;stroke-linecap:butt;stroke-linejoin:miter;stroke-opacity:1"
       id="path4413"
       sodipodi:cx="405.31915"
       sodipodi:cy="725.76654"
       sodipodi:expansion="1"
       sodipodi:revolution="3"
       sodipodi:radius="77.096474"
       sodipodi:argument="-19.537228"
       sodipodi:t0="0"
       d="m 405.31915,725.76654 c 2.98697,-2.45358 4.78105,2.81586 4.07802,4.96454 -1.90517,5.82278 -9.62319,6.03218 -14.00709,3.19149 -7.84177,-5.08133 -7.72204,-16.2683 -2.30498,-23.04964 7.94976,-9.95189 23.00722,-9.47208 32.0922,-1.41846 12.10886,10.73423 11.24839,29.77991 0.53194,41.13476 -13.48557,14.28891 -36.56881,13.03839 -50.17731,-0.35459 -16.48171,-16.2207 -14.83636,-43.36687 1.24111,-59.21986 18.94674,-18.6822 50.17064,-16.63933 68.26241,2.12763 20.88766,21.6672 18.44564,56.97823 -3.01415,77.30497 -24.38397,23.09652 -63.78849,20.25427 -86.34752,-3.90067 -25.30782,-27.0982 -22.0646,-70.60072 4.78719,-95.39008 29.81058,-27.52089 77.4144,-23.87619 104.43263,5.67371" />
    <path
       sodipodi:type="spiral"
       style="fill:none;fill-rule:evenodd;stroke:#000000;stroke-width:1px;stroke-linecap:butt;stroke-linejoin:miter;stroke-opacity:1"
       id="path4417"
       sodipodi:cx="288.00558"
       sodipodi:cy="758.74524"
       sodipodi:expansion="1"
       sodipodi:revolution="3"
       sodipodi:radius="122.63609"
       sodipodi:argument="-21.187347"
       sodipodi:t0="0"
       d="m 288.00558,758.74524 c -4.26709,-4.42712 3.86243,-7.93615 7.35816,-7.0922 9.47321,2.28705 10.7781,14.49898 6.82624,21.80851 -7.06895,13.07504 -24.82302,14.29525 -36.25887,6.56028 -16.78257,-11.35138 -17.91968,-35.2882 -6.29432,-50.70922 15.49479,-20.5538 45.80364,-21.59001 65.15958,-6.02836 24.35748,19.58275 25.28411,56.34306 5.7624,79.60993 -23.64341,28.17931 -66.89599,28.99198 -94.06029,5.49644 -32.01218,-27.68868 -32.7085,-77.45735 -5.23048,-108.51064 31.72447,-35.85225 88.02434,-36.4308 122.961,-4.96452 39.69725,35.75399 40.15713,98.59528 4.69856,137.41135 -39.77915,43.54577 -109.1691,43.88639 -151.86171,4.4326 -47.39688,-43.80118 -47.61783,-119.74508 -4.16664,-166.31206" />
    <path
       style="opacity:1;fill:#021c69;fill-opacity:0.40895523;stroke:none"
       id="path4427"
       sodipodi:type="arc"
       sodipodi:cx="231.47647"
       sodipodi:cy="501.63159"
       sodipodi:rx="31.914894"
       sodipodi:ry="29.787233"
       sodipodi:start="1.3962931"
       sodipodi:end="1.3739354"
       sodipodi:open="true"
       d="m 237.0175,530.96644 a 31.914894,29.787233 0 0 1 -36.93977,-23.99934 31.914894,29.787233 0 0 1 25.50671,-34.61072 31.914894,29.787233 0 0 1 37.2249,23.61244 31.914894,29.787233 0 0 1 -25.09058,34.87468" />
    <path
       style="opacity:1;fill:#b63e3e;fill-opacity:0.40895523;stroke:none"
       id="path4429"
       sodipodi:type="arc"
       sodipodi:cx="321.99548"
       sodipodi:cy="500.47031"
       sodipodi:rx="31.382978"
       sodipodi:ry="29.787233"
       sodipodi:start="1.3962931"
       sodipodi:end="1.3739354"
       sodipodi:open="true"
       d="m 327.44416,529.80516 a 31.382978,29.787233 0 0 1 -36.3241,-23.99934 31.382978,29.787233 0 0 1 25.08159,-34.61072 31.382978,29.787233 0 0 1 36.60449,23.61243 31.382978,29.787233 0 0 1 -24.6724,34.87468" />
    <path
       style="opacity:1;fill:#45af96;fill-opacity:0.40895523;stroke:none"
       id="path4431"
       sodipodi:type="arc"
       sodipodi:cx="412.03131"
       sodipodi:cy="501.58286"
       sodipodi:rx="32.446808"
       sodipodi:ry="30.851065"
       sodipodi:start="1.3962931"
       sodipodi:end="1.3739354"
       sodipodi:open="true"
       d="m 417.66469,531.96538 a 32.446808,30.851065 0 0 1 -37.55543,-24.85646 32.446808,30.851065 0 0 1 25.93182,-35.84682 32.446808,30.851065 0 0 1 37.84532,24.45574 32.446808,30.851065 0 0 1 -25.50876,36.1202" />
    <text
       xml:space="preserve"
       style="font-style:normal;font-weight:normal;font-size:40px;line-height:125%;font-family:sans-serif;letter-spacing:0px;word-spacing:0px;fill:#000000;fill-opacity:1;stroke:none;stroke-width:1px;stroke-linecap:butt;stroke-linejoin:miter;stroke-opacity:1"
       x="53.19149"
       y="633.21338"
       id="text4185"
       sodipodi:linespacing="125%"><tspan
         sodipodi:role="line"
         id="tspan4187"
         x="53.19149"
         y="633.21338" /></text>
    <text
       xml:space="preserve"
       style="font-style:normal;font-weight:normal;font-size:40px;line-height:125%;font-family:sans-serif;letter-spacing:0px;word-spacing:0px;fill:#000000;fill-opacity:1;stroke:none;stroke-width:1px;stroke-linecap:butt;stroke-linejoin:miter;stroke-opacity:1"
       x="236.73901"
       y="662.3028"
       id="text4203"
       sodipodi:linespacing="125%"><tspan
         sodipodi:role="line"
         id="tspan4205"
         x="236.73901"
         y="662.3028"
         style="font-size:25px;fill:#d40000;fill-opacity:1">YOUR STORY</tspan></text>
    <text
       xml:space="preserve"
       style="font-style:normal;font-weight:normal;font-size:40px;line-height:125%;font-family:sans-serif;letter-spacing:0px;word-spacing:0px;fill:#000000;fill-opacity:1;stroke:none;stroke-width:1px;stroke-linecap:butt;stroke-linejoin:miter;stroke-opacity:1"
       x="226.07208"
       y="921.47833"
       id="text4207"
       sodipodi:linespacing="125%"><tspan
         sodipodi:role="line"
         id="tspan4209"
         x="226.07208"
         y="921.47833"
         style="fill:#e50000;fill-opacity:1">ARTICLE</tspan></text>
    <flowRoot
       xml:space="preserve"
       id="flowRoot8190"
       style="fill:black;stroke:none;stroke-opacity:1;stroke-width:1px;stroke-linejoin:miter;stroke-linecap:butt;fill-opacity:1;font-family:sans-serif;font-style:normal;font-weight:normal;font-size:40px;line-height:125%;letter-spacing:0px;word-spacing:0px"><flowRegion
         id="flowRegion8192"><rect
           id="rect8194"
           width="8.5106382"
           height="226.59575"
           x="65.957443"
           y="27.446808" /></flowRegion><flowPara
         id="flowPara8196" /></flowRoot>    <flowRoot
       xml:space="preserve"
       id="flowRoot8198"
       style="fill:black;stroke:none;stroke-opacity:1;stroke-width:1px;stroke-linejoin:miter;stroke-linecap:butt;fill-opacity:1;font-family:sans-serif;font-style:normal;font-weight:normal;font-size:40px;line-height:125%;letter-spacing:0px;word-spacing:0px"><flowRegion
         id="flowRegion8200"><rect
           id="rect8202"
           width="19.148935"
           height="212.76596"
           x="80.851067"
           y="31.702127" /></flowRegion><flowPara
         id="flowPara8204" /></flowRoot>    <rect
       style="fill:#0000ff;fill-rule:evenodd;stroke:#000000;stroke-width:1px;stroke-linecap:butt;stroke-linejoin:miter;stroke-opacity:1"
       id="rect8165"
       width="0"
       height="300.44473"
       x="1098.4586"
       y="635.00238" />
    <path
       sodipodi:type="spiral"
       style="fill:none;fill-rule:evenodd;stroke:#000000;stroke-width:1px;stroke-linecap:butt;stroke-linejoin:miter;stroke-opacity:1"
       id="path8171"
       sodipodi:cx="215.83351"
       sodipodi:cy="596.2193"
       sodipodi:expansion="1"
       sodipodi:revolution="3"
       sodipodi:radius="34.560562"
       sodipodi:argument="-17.857834"
       sodipodi:t0="0"
       d="m 215.83351,596.2193 c 0.94828,1.45031 -1.48714,1.99379 -2.41051,1.5761 -2.50228,-1.13191 -2.22061,-4.58152 -0.7417,-6.39712 2.64543,-3.2477 7.62493,-2.65081 10.38375,0.0927 4.04867,4.02622 3.10327,10.71305 -0.92712,14.37036 -5.37188,4.8746 -13.81752,3.56579 -18.35698,-1.76153 -5.71244,-6.7039 -4.03364,-16.92987 2.59594,-22.34359 8.02931,-6.55675 20.04668,-4.50459 26.3302,3.43034 7.40492,9.35105 4.97749,23.16629 -4.26475,30.31682 -10.67053,8.25557 -26.28775,5.45169 -34.30343,-5.09916 -9.10793,-11.98854 -5.9268,-29.41053 5.93356,-38.29005 13.30554,-9.96148 32.53426,-6.40257 42.27667,6.76798 10.81592,14.6218 6.87883,35.65869 -7.60238,46.26328" />
    <path
       sodipodi:type="spiral"
       style="fill:none;fill-rule:evenodd;stroke:#000000;stroke-width:1px;stroke-linecap:butt;stroke-linejoin:miter;stroke-opacity:1"
       id="path8173"
       sodipodi:cx="300.38684"
       sodipodi:cy="608.45728"
       sodipodi:expansion="1"
       sodipodi:revolution="3"
       sodipodi:radius="39.710182"
       sodipodi:argument="-17.476154"
       sodipodi:t0="0"
       d="m 300.38684,608.45728 c 0.39047,1.95234 -2.43907,1.48955 -3.24492,0.64898 -2.18379,-2.27791 -0.40708,-5.83575 1.94696,-7.13883 4.21082,-2.33089 9.26511,0.43671 11.03272,4.5429 2.59405,6.026 -1.27589,12.7517 -7.13883,14.92663 -7.81439,2.89884 -16.26,-2.11134 -18.82053,-9.73478 -3.22217,-9.59332 2.94449,-19.77899 12.33071,-22.71443 11.36798,-3.55521 23.30408,3.77625 26.60833,14.92666 3.89395,13.14037 -4.60711,26.83296 -17.52259,30.50223 -14.91143,4.23631 -30.3644,-5.43739 -34.39613,-20.11853 -4.58111,-16.68165 6.26725,-33.89762 22.71447,-38.29004 18.45129,-4.92763 37.43213,7.09683 42.18393,25.31041 5.27541,20.22053 -7.92617,40.96762 -27.90634,46.07784" />
    <path
       sodipodi:type="spiral"
       style="fill:none;fill-rule:evenodd;stroke:#000000;stroke-width:1px;stroke-linecap:butt;stroke-linejoin:miter;stroke-opacity:1"
       id="path8175"
       sodipodi:cx="383.82764"
       sodipodi:cy="624.0329"
       sodipodi:expansion="1"
       sodipodi:revolution="3"
       sodipodi:radius="54.184429"
       sodipodi:argument="-18.514818"
       sodipodi:t0="0"
       d="m 383.82764,624.0329 c 2.56593,0.8925 0.0629,3.89915 -1.4834,4.26475 -4.19028,0.99074 -7.14364,-3.56148 -7.0461,-7.23154 0.17446,-6.56488 6.9278,-10.59181 12.97968,-9.82746 8.88139,1.1217 14.11044,10.32832 12.60882,18.72783 -2.00143,11.19523 -13.73949,17.6572 -24.47598,15.39017 -13.51079,-2.85283 -21.21812,-17.15535 -18.17153,-30.22413 3.68984,-15.82804 20.57379,-24.78717 35.97228,-20.95287 18.14658,4.51858 28.36131,23.99382 23.73423,41.72041 -5.34215,20.46606 -27.41492,31.93885 -47.46856,26.51559 -22.78623,-6.16225 -35.51877,-30.83677 -29.29695,-53.21671 6.97995,-25.10691 34.25917,-39.10041 58.96486,-32.0783 27.42799,7.79589 42.68336,37.68199 34.85965,64.71301" />
    <path
       sodipodi:type="spiral"
       style="fill:none;fill-rule:evenodd;stroke:#000000;stroke-width:1px;stroke-linecap:butt;stroke-linejoin:miter;stroke-opacity:1"
       id="path8177"
       sodipodi:cx="238.0844"
       sodipodi:cy="672.9848"
       sodipodi:expansion="1"
       sodipodi:revolution="3"
       sodipodi:radius="37.793758"
       sodipodi:argument="-21.164108"
       sodipodi:t0="0"
       d="m 238.0844,672.9848 c -1.28297,-1.39453 1.24682,-2.41742 2.3178,-2.13237 2.90227,0.77246 3.21684,4.54424 1.94695,6.76797 -2.27154,3.97773 -7.75021,4.22653 -11.21815,1.76153 -5.08934,-3.61748 -5.26826,-11.00044 -1.57611,-15.66832 4.92105,-6.22156 14.26647,-6.32377 20.1185,-1.39069 7.36418,6.20777 7.38642,17.54007 1.20527,24.56868 -7.48621,8.51258 -20.81793,8.45323 -29.01886,1.01984 -9.6645,-8.75999 -9.52264,-24.09844 -0.83442,-33.46903 10.03089,-10.81871 27.38074,-10.59379 37.91921,-0.649 11.97448,11.2999 11.66615,30.66427 0.46358,42.36938 -12.5676,13.13137 -33.94872,12.7394 -46.81956,0.27816 -14.28907,-13.83434 -13.8133,-37.23385 -0.0927,-51.26974" />
    <text
       xml:space="preserve"
       style="font-style:normal;font-weight:normal;font-size:40px;line-height:125%;font-family:sans-serif;letter-spacing:0px;word-spacing:0px;fill:#000000;fill-opacity:1;stroke:none;stroke-width:1px;stroke-linecap:butt;stroke-linejoin:miter;stroke-opacity:1"
       x="254.27438"
       y="1034.7494"
       id="text4203-4"
       sodipodi:linespacing="125%"><tspan
         sodipodi:role="line"
         id="tspan4205-8"
         x="254.27438"
         y="1034.7494"
         style="font-size:25px;fill:#d40000;fill-opacity:1">FOOTER</tspan></text>
  </g>
</svg>
